<?xml version="1.0" encoding="UTF-8"?>
<!--Generator: Apple Native CoreSVG 175.5-->
<!DOCTYPE svg
  PUBLIC "-//W3C//DTD SVG 1.1//EN"
  "http://www.w3.org/Graphics/SVG/1.1/DTD/svg11.dtd">
<svg
  version="1.1"
  xmlns="http://www.w3.org/2000/svg"
  width="11.8438"
  height="14.7578">
  <g>
    <rect height="14.7578" opacity="0" width="11.8438" x="0" y="0"/>
    <path d="M5.92188 14.7578C6.32812 14.7578 6.61719 14.4766 6.61719 14.0703L6.61719 3.78125L6.53906 1.45312L6.09375 1.60938L8.89844 4.67969L10.6797 6.42969C10.8047 6.55469 10.9844 6.61719 11.1719 6.61719C11.5625 6.61719 11.8438 6.32031 11.8438 5.9375C11.8438 5.75 11.7812 5.58594 11.6328 5.42969L6.44531 0.234375C6.29688 0.078125 6.11719 0 5.92188 0C5.72656 0 5.54688 0.078125 5.39844 0.234375L0.21875 5.42969C0.0703125 5.58594 0 5.75 0 5.9375C0 6.32031 0.28125 6.61719 0.671875 6.61719C0.859375 6.61719 1.04688 6.55469 1.16406 6.42969L2.94531 4.67969L5.74219 1.60938L5.30469 1.45312L5.22656 3.78125L5.22656 14.0703C5.22656 14.4766 5.51562 14.7578 5.92188 14.7578Z" fill="#000000" fill-opacity="0.85"/>
  </g>
</svg>
