<?xml version="1.0" encoding="UTF-8"?>
<!--Generator: Apple Native CoreSVG 175.5-->
<!DOCTYPE svg
  PUBLIC "-//W3C//DTD SVG 1.1//EN"
  "http://www.w3.org/Graphics/SVG/1.1/DTD/svg11.dtd">
<svg
  version="1.1"
  xmlns="http://www.w3.org/2000/svg"
  width="15.9141"
  height="14.9317">
  <g>
    <rect height="14.9317" opacity="0" width="15.9141" x="0" y="0"/>
    <path d="M6.57812 7.38383C8.25781 7.38383 9.70312 5.88383 9.70312 3.9307C9.70312 2.00102 8.25 0.571328 6.57812 0.571328C4.90625 0.571328 3.45312 2.03227 3.45312 3.94633C3.45312 5.88383 4.90625 7.38383 6.57812 7.38383ZM1.33594 14.6182L11.7422 14.6182C11.6484 14.4307 11.6016 14.2276 11.6016 14.0088L11.6016 11.0635C11.2344 10.7745 10.9453 10.4073 10.7422 9.9932C9.67969 9.27445 8.26562 8.78227 6.57812 8.78227C2.52344 8.78227 0 11.5635 0 13.5791C0 14.2276 0.5 14.6182 1.33594 14.6182ZM13.5391 5.71195C12.2031 5.71195 11.1484 6.77445 11.1484 8.08695C11.1484 9.09477 11.75 9.96195 12.6641 10.3213L12.6641 14.0088C12.6641 14.1026 12.7109 14.1651 12.7734 14.2432L13.3984 14.876C13.4688 14.9463 13.5781 14.9541 13.6641 14.876L14.8438 13.6885C14.9297 13.6104 14.9297 13.5088 14.8438 13.4307L14.1094 12.6885L15.1328 11.6963C15.2031 11.6182 15.1953 11.5166 15.1172 11.4229L14.1172 10.4229C15.2656 9.96195 15.9141 9.1182 15.9141 8.08695C15.9141 6.77445 14.8516 5.71195 13.5391 5.71195ZM13.5312 6.82914C13.9297 6.82914 14.2578 7.16508 14.2578 7.56352C14.2578 7.97758 13.9297 8.3057 13.5312 8.3057C13.125 8.3057 12.7891 7.97758 12.7891 7.56352C12.7891 7.16508 13.1172 6.82914 13.5312 6.82914Z" fill="#000000" fill-opacity="0.85"/>
  </g>
</svg>
